<svg width="328" height="127" viewBox="0 0 328 127" fill="none" xmlns="http://www.w3.org/2000/svg">
<path d="M77.5227 72V42.9091H87.6932C89.7197 42.9091 91.3911 43.2595 92.7074 43.9602C94.0237 44.6515 95.0038 45.5843 95.6477 46.7585C96.2917 47.9233 96.6136 49.2159 96.6136 50.6364C96.6136 51.8864 96.3911 52.9186 95.946 53.733C95.5104 54.5473 94.9328 55.1913 94.2131 55.6648C93.5028 56.1383 92.7311 56.4886 91.8977 56.7159V57C92.7879 57.0568 93.6828 57.3693 94.5824 57.9375C95.482 58.5057 96.2348 59.3201 96.8409 60.3807C97.447 61.4413 97.75 62.7386 97.75 64.2727C97.75 65.7311 97.4186 67.0426 96.7557 68.2074C96.0928 69.3722 95.0464 70.2955 93.6165 70.9773C92.1866 71.6591 90.3258 72 88.0341 72H77.5227ZM81.0455 68.875H88.0341C90.3352 68.875 91.9688 68.4299 92.9347 67.5398C93.91 66.6402 94.3977 65.5511 94.3977 64.2727C94.3977 63.2879 94.1468 62.3788 93.6449 61.5455C93.143 60.7027 92.428 60.0303 91.5 59.5284C90.572 59.017 89.4735 58.7614 88.2045 58.7614H81.0455V68.875ZM81.0455 55.6932H87.5795C88.6402 55.6932 89.5966 55.4848 90.4489 55.0682C91.3106 54.6515 91.9924 54.0644 92.4943 53.3068C93.0057 52.5492 93.2614 51.6591 93.2614 50.6364C93.2614 49.358 92.8163 48.2737 91.9261 47.3835C91.036 46.4839 89.625 46.0341 87.6932 46.0341H81.0455V55.6932ZM101.038 42.9091H105.072L113.141 56.4886H113.482L121.55 42.9091H125.584L115.072 60.0114V72H111.55V60.0114L101.038 42.9091ZM130.385 46.0341V42.9091H152.203V46.0341H143.055V72H139.533V46.0341H130.385ZM157.64 72V42.9091H175.197V46.0341H161.163V55.8636H174.288V58.9886H161.163V68.875H175.424V72H157.64ZM186.103 69.6H188.103C192.69 69.6 194.983 68.08 194.983 65.04C194.983 63.0933 194.197 61.7733 192.623 61.08C191.583 60.6267 189.93 60.4 187.663 60.4H186.103V69.6ZM186.183 56.28H188.383C192.223 56.28 194.143 54.84 194.143 51.96C194.143 49.4533 192.45 48.2 189.063 48.2H186.183V56.28ZM181.823 44.12H189.063C195.277 44.12 198.383 46.6267 198.383 51.64C198.383 54.9733 196.757 57.1467 193.503 58.16C195.263 58.6667 196.65 59.52 197.663 60.72C198.73 61.9467 199.263 63.4 199.263 65.08C199.263 70.84 195.517 73.72 188.023 73.72H181.823V44.12ZM206.997 72H203.304L213.986 42.9091H217.622L228.304 72H224.611L215.918 47.5114H215.69L206.997 72ZM208.361 60.6364H223.247V63.7614H208.361V60.6364ZM232.835 72V42.9091H243.006C245.032 42.9091 246.704 43.2595 248.02 43.9602C249.336 44.6515 250.316 45.5843 250.96 46.7585C251.604 47.9233 251.926 49.2159 251.926 50.6364C251.926 51.8864 251.704 52.9186 251.259 53.733C250.823 54.5473 250.245 55.1913 249.526 55.6648C248.815 56.1383 248.044 56.4886 247.21 56.7159V57C248.1 57.0568 248.995 57.3693 249.895 57.9375C250.795 58.5057 251.547 59.3201 252.153 60.3807C252.759 61.4413 253.062 62.7386 253.062 64.2727C253.062 65.7311 252.731 67.0426 252.068 68.2074C251.405 69.3722 250.359 70.2955 248.929 70.9773C247.499 71.6591 245.638 72 243.347 72H232.835ZM236.358 68.875H243.347C245.648 68.875 247.281 68.4299 248.247 67.5398C249.223 66.6402 249.71 65.5511 249.71 64.2727C249.71 63.2879 249.459 62.3788 248.957 61.5455C248.455 60.7027 247.741 60.0303 246.812 59.5284C245.884 59.017 244.786 58.7614 243.517 58.7614H236.358V68.875ZM236.358 55.6932H242.892C243.953 55.6932 244.909 55.4848 245.761 55.0682C246.623 54.6515 247.305 54.0644 247.807 53.3068C248.318 52.5492 248.574 51.6591 248.574 50.6364C248.574 49.358 248.129 48.2737 247.239 47.3835C246.348 46.4839 244.938 46.0341 243.006 46.0341H236.358V55.6932ZM258.851 72V42.9091H269.021C271.048 42.9091 272.719 43.2595 274.036 43.9602C275.352 44.6515 276.332 45.5843 276.976 46.7585C277.62 47.9233 277.942 49.2159 277.942 50.6364C277.942 51.8864 277.719 52.9186 277.274 53.733C276.839 54.5473 276.261 55.1913 275.541 55.6648C274.831 56.1383 274.059 56.4886 273.226 56.7159V57C274.116 57.0568 275.011 57.3693 275.911 57.9375C276.81 58.5057 277.563 59.3201 278.169 60.3807C278.775 61.4413 279.078 62.7386 279.078 64.2727C279.078 65.7311 278.747 67.0426 278.084 68.2074C277.421 69.3722 276.375 70.2955 274.945 70.9773C273.515 71.6591 271.654 72 269.362 72H258.851ZM262.374 68.875H269.362C271.663 68.875 273.297 68.4299 274.263 67.5398C275.238 66.6402 275.726 65.5511 275.726 64.2727C275.726 63.2879 275.475 62.3788 274.973 61.5455C274.471 60.7027 273.756 60.0303 272.828 59.5284C271.9 59.017 270.802 58.7614 269.533 58.7614H262.374V68.875ZM262.374 55.6932H268.908C269.968 55.6932 270.925 55.4848 271.777 55.0682C272.639 54.6515 273.321 54.0644 273.822 53.3068C274.334 52.5492 274.589 51.6591 274.589 50.6364C274.589 49.358 274.144 48.2737 273.254 47.3835C272.364 46.4839 270.953 46.0341 269.021 46.0341H262.374V55.6932ZM284.866 72V42.9091H288.389V68.875H301.912V72H284.866ZM307.366 72V42.9091H324.923V46.0341H310.889V55.8636H324.014V58.9886H310.889V68.875H325.151V72H307.366Z" fill="black"/>
<rect x="18" y="20" width="52" height="79" fill="black"/>
<line x1="44.5" y1="-1.01039e-09" x2="44.5" y2="126" stroke="black" stroke-opacity="0.15"/>
<line x1="44" y1="0.5" x2="88" y2="0.5" stroke="black" stroke-opacity="0.15"/>
<line y1="126.5" x2="44" y2="126.5" stroke="black" stroke-opacity="0.15"/>
</svg>
